<svg width="8" height="5" viewBox="0 0 8 5" fill="none" xmlns="http://www.w3.org/2000/svg">
<path d="M3.97431 4.58321C3.82256 4.58163 3.67688 4.52331 3.56596 4.41973L0.153186 0.986239C0.0519682 0.876537 -0.00288322 0.73193 0.000116887 0.582698C0.003117 0.433465 0.063736 0.29118 0.169281 0.185635C0.274825 0.0800902 0.417111 0.0194712 0.566343 0.0164711C0.715576 0.013471 0.860183 0.0683224 0.969884 0.16954L3.97417 3.17382L6.99872 0.168811C7.10843 0.0675932 7.25303 0.0127418 7.40226 0.0157419C7.5515 0.018742 7.69378 0.079361 7.79933 0.184906C7.90487 0.29045 7.96549 0.432736 7.96849 0.581969C7.97149 0.731201 7.91664 0.875808 7.81542 0.985509L4.3831 4.41914C4.32924 4.47222 4.26536 4.51405 4.19518 4.54222C4.125 4.57039 4.04992 4.58432 3.97431 4.58321Z" fill="black"/>
</svg>
