<svg width="10" height="16" viewBox="0 0 10 16" fill="none" xmlns="http://www.w3.org/2000/svg">
<path d="M-0.00114155 7.97939C0.00202084 7.67587 0.118662 7.38453 0.32583 7.16269L7.19281 0.337133C7.41221 0.134698 7.70142 0.0249953 7.99989 0.0309955C8.29835 0.0369957 8.58292 0.158234 8.79401 0.369323C9.0051 0.580413 9.12634 0.864983 9.13234 1.16345C9.13834 1.46191 9.02864 1.75113 8.8262 1.97053L2.81764 7.9791L8.82766 14.0282C9.0301 14.2476 9.1398 14.5368 9.1338 14.8353C9.1278 15.1338 9.00656 15.4183 8.79547 15.6294C8.58438 15.8405 8.29981 15.9617 8.00135 15.9677C7.70288 15.9737 7.41367 15.864 7.19426 15.6616L0.326997 8.79696C0.220848 8.68923 0.137176 8.56148 0.080843 8.42112C0.0245104 8.28077 -0.00335789 8.13061 -0.00114155 7.97939Z" fill="#05286A"/>
</svg>
