<svg width="10" height="16" viewBox="0 0 10 16" fill="none" xmlns="http://www.w3.org/2000/svg">
<path d="M9.33073 7.97939C9.32757 7.67587 9.21093 7.38453 9.00376 7.16269L2.13678 0.337133C1.91738 0.134698 1.62817 0.0249953 1.3297 0.0309955C1.03124 0.0369957 0.746666 0.158234 0.535576 0.369323C0.324487 0.580413 0.203249 0.864983 0.197249 1.16345C0.191249 1.46191 0.300951 1.75113 0.503387 1.97053L6.51195 7.9791L0.501928 14.0282C0.299493 14.2476 0.18979 14.5368 0.19579 14.8353C0.201791 15.1338 0.323029 15.4183 0.534118 15.6294C0.745208 15.8405 1.02978 15.9617 1.32824 15.9677C1.62671 15.9737 1.91592 15.864 2.13533 15.6616L9.00259 8.79696C9.10874 8.68923 9.19241 8.56148 9.24875 8.42112C9.30508 8.28077 9.33295 8.13061 9.33073 7.97939Z" fill="#05286A"/>
</svg>
